<?xml version="1.0" standalone="no"?>
<!DOCTYPE svg PUBLIC "-//W3C//DTD SVG 1.1//EN" "http://www.w3.org/Graphics/SVG/1.1/DTD/svg11.dtd" >
<svg xmlns="http://www.w3.org/2000/svg">
<metadata></metadata>
<defs>
<font id="enemyregular" horiz-adv-x="1576" >
<font-face units-per-em="2048" ascent="1516" descent="-532" />
<missing-glyph horiz-adv-x="532" />
<glyph horiz-adv-x="2048" />
<glyph horiz-adv-x="2048" />
<glyph unicode="&#xd;" horiz-adv-x="2048" />
<glyph unicode=" "  horiz-adv-x="532" />
<glyph unicode="&#x09;" horiz-adv-x="532" />
<glyph unicode="&#xa0;" horiz-adv-x="532" />
<glyph unicode="!" horiz-adv-x="690" d="M61 1645l519 4l8 -697l-37 -358l-399 -19l-86 621zM123 373l184 86l271 -37l51 -369l-264 -59l-232 51z" />
<glyph unicode="&#x22;" horiz-adv-x="1112" d="M61 1608l306 75l116 -81l35 -457l-254 -297l-147 147l108 174l-155 27zM594 1608l305 75l117 -81l35 -457l-254 -297l-148 147l109 174l-156 27z" />
<glyph unicode="#" horiz-adv-x="1499" d="M61 748l2 329l275 -2l4 221l303 -2v-223l158 -2l-6 -324h-152l2 -749l-319 6l6 743zM63 180v371h209v-371h-209zM702 201v334l156 -3l2 308l8 456l303 -2l3 -764l229 -2l-6 -340l-223 5v-197l-320 6l2 197zM1231 735v348h207l-6 -348h-201z" />
<glyph unicode="$" horiz-adv-x="1296" d="M61 1100l125 450l287 74l43 -412l649 -440l70 -401l-102 -297l-267 -117l-2 432l-676 445zM119 12l14 473l244 -8l205 -223l182 -4l16 -293l23 -281l-275 -8l13 309zM561 1948l275 -9l-37 -325l303 -12l-47 -406l-211 -25l-250 244l-21 209z" />
<glyph unicode="%" horiz-adv-x="2197" d="M61 1360l334 293l13 -350l-86 -140l90 -108l-2 -371l-342 223zM492 1282l2 371l342 -223l6 -453l-334 -293l-12 350l86 140zM520 2l385 897l305 735h400l-359 -921l-307 -705zM1356 272l6 453l342 223l2 -370l-90 -109l86 -139l-12 -350zM1786 350l90 109l-86 139l12 350 l334 -293l-6 -452l-342 -223z" />
<glyph unicode="&#x26;" horiz-adv-x="1873" d="M61 645l275 209l129 -135l6 -234l45 -39l234 -67l165 -213l-378 -168l-465 215zM303 1376l258 295h170l51 -397l-69 -98l485 -521l381 -512l-98 -147h-297l-445 575l-434 457zM817 1688l410 -66l162 -356l-97 -283l-213 -92l-129 164l80 155l-153 84zM1343 700l15 267 l454 -2l-10 -338l-360 -125l24 145z" />
<glyph unicode="'" horiz-adv-x="579" d="M61 1608l306 75l116 -81l35 -457l-254 -297l-147 147l108 174l-155 27z" />
<glyph unicode="(" horiz-adv-x="976" d="M61 -385l9 350l460 -8l379 8l6 -350l-256 10zM61 1673l598 -10l256 10l-6 -350l-379 8l-460 -8zM63 481l386 4l2 -446l-371 2zM63 807l17 440l350 2l19 -446z" />
<glyph unicode=")" horiz-adv-x="976" d="M61 -385l7 350l378 -8l461 8l8 -350l-598 10zM61 1673l256 -10l598 10l-8 -350l-461 8l-378 -8zM526 39l2 446l385 -4l-16 -440zM528 803l19 446l350 -2l16 -440z" />
<glyph unicode="*" horiz-adv-x="880" d="M61 1456l189 -10l-119 162l170 118l107 -223l-5 -266l-81 -188l-185 92l119 149l-186 -24zM477 1497l82 209l184 -92l-118 -152l186 21l8 -191l-188 13l119 -158l-170 -119l-101 203z" />
<glyph unicode="+" horiz-adv-x="1054" d="M61 809l308 -10l-7 307l351 -6l-15 -297l295 6l-6 -350l-285 14l11 -287l-351 -12l11 295l-299 -10z" />
<glyph unicode="," horiz-adv-x="661" d="M61 420l388 76l116 -82l35 -457l-274 -317l-209 167l108 175l-155 26z" />
<glyph unicode="-" horiz-adv-x="870" d="M61 823l392 -12l356 12l-6 -350l-350 19l-379 -19z" />
<glyph unicode="." horiz-adv-x="679" d="M61 410l203 94l297 -39l57 -406l-290 -65l-254 55z" />
<glyph unicode="/" horiz-adv-x="1110" d="M61 2l345 918l243 714h400l-351 -932l-233 -694z" />
<glyph unicode="0" horiz-adv-x="1273" d="M61 1276l383 375l144 -2l2 -406l-154 -242l8 -389l154 -223l-4 -387h-141l-381 352zM680 1651h141l381 -353l10 -921l-383 -375l-143 2l-2 406l180 186l-8 451l-160 196z" />
<glyph unicode="1" horiz-adv-x="1150" d="M61 1305l363 278l-33 -557l-205 -47zM158 -6l8 362l280 56l13 784l26 399l283 58l129 -137l-20 -218l-19 -475l8 -413l221 -33l3 -379l-455 16z" />
<glyph unicode="2" horiz-adv-x="1374" d="M61 1505l484 148l4 -600l-350 -72zM94 471l369 297l336 262l-162 176l-8 445l250 2l364 -455l-65 -321l-619 -488l-2 -397l-379 6zM629 -10l16 379l199 20l155 154l314 28l-66 -571l-307 8z" />
<glyph unicode="3" horiz-adv-x="1249" d="M61 1530l420 125l19 -512l-287 -45zM111 88l102 418h311l15 -512zM477 946l256 180l-10 91l-148 98l-10 340l168 28l420 -317l21 -147l-41 -287l-230 -94l223 -68l62 -442l-438 -346l-127 18l-15 319l160 132l2 71l-285 185z" />
<glyph unicode="4" horiz-adv-x="1472" d="M61 803l670 839l369 15l35 -76l-224 -317l-415 -496l225 31l-6 -373l-531 -8zM627 4l4 295l164 66l4 251l4 367l282 344l82 88l2 -391l-4 -223l244 28l2 -387l-250 7v-89l185 -84v-276z" />
<glyph unicode="5" horiz-adv-x="1298" d="M61 1231l2 201l154 202l264 -2l6 -397l-8 -518l-176 -60l-231 117zM68 522l258 33l204 -178l162 -35l13 -322l-619 -10zM549 1296l6 336l682 21l-63 -475l-279 -7zM573 721l15 313l256 29l360 -195l-14 -647l-397 -196l-11 381l49 167z" />
<glyph unicode="6" horiz-adv-x="1409" d="M61 694l242 731l678 256l158 -215l-4 -159l-455 -168l-156 -471l189 -512l-8 -172l-416 51zM719 748l14 204l293 172l322 -282l-11 -598l-274 -269l-246 21l-6 149l90 158v393z" />
<glyph unicode="7" horiz-adv-x="1179" d="M61 1645l1057 -11l-26 -315l-508 -51l-191 -144l-293 4zM205 188l266 517l184 503l408 23l-203 -680l-131 -541l-412 -8z" />
<glyph unicode="8" horiz-adv-x="1239" d="M61 362l70 291l162 97l141 -129l-18 -185l162 -47l98 -387l-418 25zM84 1352l223 319l172 21l92 -389l-61 -107l125 -111l477 -370l41 -348l-223 -320l-170 -18l-94 389l61 104l-143 86l-461 398zM561 1714l418 -22l199 -336l-72 -295l-172 -90l-137 112l26 179l-157 71z " />
<glyph unicode="9" horiz-adv-x="1419" d="M61 1350l304 301l268 6l4 -211l-117 -146l2 -331l219 -76l2 -223l-301 -140l-350 248zM215 176l57 154l559 213l62 473l-156 409l-16 254l405 -65l232 -576l-148 -774l-702 -295z" />
<glyph unicode=":" horiz-adv-x="679" d="M61 410l203 94l297 -39l57 -406l-290 -65l-254 55zM61 1106l203 94l297 -39l57 -405l-290 -66l-254 55z" />
<glyph unicode=";" horiz-adv-x="706" d="M61 1106l203 94l297 -39l57 -405l-290 -66l-254 55zM106 420l388 76l116 -82l35 -457l-274 -317l-209 167l108 175l-155 26z" />
<glyph unicode="&#x3c;" horiz-adv-x="903" d="M61 891l330 113l445 165l6 -344l-498 -157l494 -154l-15 -377l-446 189l-301 149z" />
<glyph unicode="=" horiz-adv-x="1157" d="M61 621l644 -13l391 13l-13 -351l-624 19l-391 -19zM61 1071l392 -12l643 12l-6 -350l-392 18l-624 -18z" />
<glyph unicode="&#x3e;" horiz-adv-x="903" d="M61 825l7 344l444 -165l330 -113l-15 -416l-301 -149l-446 -189l-14 377l493 154z" />
<glyph unicode="?" horiz-adv-x="1196" d="M61 1530l424 108l2 -512l-290 -32zM240 352l184 86l270 -37l51 -368l-264 -60l-231 52zM264 694l43 281l447 119l-2 94l-185 108l2 340l168 23l369 -270l29 -445l-207 -237l-283 -19l4 -176h-330z" />
<glyph unicode="@" horiz-adv-x="2295" d="M61 731l465 856l750 107l12 -277l-569 -94l-348 -633l268 -698l553 53l172 -115l2 -116l-752 -60l-239 119zM530 674l275 553l242 30l180 -30l-45 -361l-215 -51l34 -303l158 -37l-10 -297l-432 -22zM1249 115l33 534l6 481l119 136l356 -17l47 -424l-139 -18l-12 -430 l6 -160l229 131l64 438l-86 517l-492 118l-8 267l742 -150l120 -752l-80 -569l-598 -330z" />
<glyph unicode="A" horiz-adv-x="1837" d="M61 -4l41 334l174 59l166 365l138 362l-252 -8l30 498l260 26l138 -514l61 -166l-100 -221l135 -24l43 -164l-223 14l-54 -166l154 -69l25 -326h-736zM723 1645l424 10l196 -658l232 -608l174 -63l27 -326l-848 -6l-6 315l149 80l-235 801z" />
<glyph unicode="B" horiz-adv-x="1560" d="M61 -6l9 362l157 35l13 805l-144 -10l-26 430l583 20l4 -399l-18 -475l8 -373l6 -391zM729 332l350 2l-32 143l-295 162l2 303l290 254l-286 47l24 387l359 -24l272 -211l-67 -404l-181 -172l189 -84l145 -424l-221 -354l-543 41z" />
<glyph unicode="C" horiz-adv-x="1447" d="M61 547l62 631l528 454l168 -22l-8 -445l-291 -270l15 -250l309 -207l-8 -461l-484 84zM899 1012l4 600l483 -148l-137 -524zM926 -25l4 486l330 26l122 -454z" />
<glyph unicode="D" horiz-adv-x="1566" d="M61 -6l9 362l157 35l13 805l-144 -10l-26 430l583 20l4 -399l-18 -475l8 -373l6 -391zM745 389l271 146l-10 489l-261 129l17 475l446 -31l297 -507l-26 -740l-394 -393l-329 39z" />
<glyph unicode="E" horiz-adv-x="1445" d="M61 -6l9 362l178 35l12 785l-164 10l-26 430l206 6l398 14l4 -399l-19 -475l9 -373l6 -391l-426 -2zM754 2v338l309 135l321 -22l-49 -496zM778 727v201l213 123l217 6l-6 -453l-213 -16zM778 1294l4 332l529 29l-41 -473l-207 2z" />
<glyph unicode="F" horiz-adv-x="1351" d="M61 -6l9 362l157 35l13 805l-144 -10l-26 430l583 20l4 -399l-18 -475l18 -373l203 -37l29 -350zM758 727v201l213 123l217 6l-6 -453l-213 -16zM758 1294l4 332l528 29l-41 -473l-207 2z" />
<glyph unicode="G" horiz-adv-x="1644" d="M61 547l62 631l569 454l209 -22l-8 -445l-332 -270l14 -250l310 -207l-45 -438l-447 61zM907 670l2 155l674 13l-24 -426l-173 -23l33 -608l-92 -43l-387 108l74 625zM981 1012l4 600l483 -148l-137 -524z" />
<glyph unicode="H" horiz-adv-x="1865" d="M61 -6l9 362l178 35l12 805l-164 10l-6 410l772 20l4 -399l-190 -41l16 -252h170l197 19l6 -324l-227 29l-138 -2l-12 -256l195 -78l-4 -334zM983 -6l8 362l178 35l13 805l-164 10l-6 410l772 20l4 -399l-191 -41l29 -428l-16 -358l194 -78l-4 -334z" />
<glyph unicode="I" horiz-adv-x="944" d="M61 -6l9 362l178 35l6 385l6 420l-164 10l-6 410l772 20l4 -399l-190 -41l29 -428l-17 -358l195 -78l-4 -334z" />
<glyph unicode="J" horiz-adv-x="1169" d="M61 401h265l204 -145l54 -301l-508 47zM307 1638l322 11l436 6l-35 -705l78 -585l-426 -363l-96 555l20 625l-272 -47z" />
<glyph unicode="K" horiz-adv-x="1755" d="M61 -6l9 362l178 35l12 805l-164 10l-6 410l772 20l4 -399l-190 -41l29 -428l-17 -358l195 -78l-4 -334zM793 707l258 294l454 -585l115 -21l74 -385l-678 -6l-33 334l109 43zM938 1634l567 2l-22 -391l-355 -217l-12 143l-168 82z" />
<glyph unicode="L" horiz-adv-x="1404" d="M61 -6l9 362l178 35l12 805l-164 10l-6 410l772 20l4 -399l-190 -41l29 -428l-17 -358l-29 -414zM774 2v338l289 135l280 -22l-49 -496z" />
<glyph unicode="M" horiz-adv-x="2228" d="M61 -2v395l187 58l31 206l22 283l119 -27l63 -272l35 -190l176 -70l31 -377zM141 1634l660 -6l329 -887l291 664l25 -541l-184 -440l-129 -406l-209 7l-226 561l-284 583l-271 54zM1346 -6l8 362l178 35l12 805l-37 422l639 18l4 -399l-190 -41l29 -428l-17 -358l195 -78 l-4 -334z" />
<glyph unicode="N" horiz-adv-x="1751" d="M61 -2v395l187 58l31 206l22 283h141l41 -299l35 -190l176 -70l31 -377zM84 1634l676 -6l391 -692l324 -356l2 -537l-293 -6l-406 510l-372 608l-283 45zM1026 1638l664 7v-396l-158 -75l-47 -220h-135l-80 222l-213 86z" />
<glyph unicode="O" horiz-adv-x="1748" d="M61 526l41 635l512 471l168 -16l9 -445l-283 -280l22 -207l318 -238l8 -460l-487 67zM893 1640l485 -65l310 -475l-41 -631l-512 -475l-168 18l-9 445l283 299l-22 207l-318 217z" />
<glyph unicode="P" horiz-adv-x="1536" d="M61 -45l7 383l206 63l-12 846l-147 21l-13 370l598 23l7 -227l-13 -557l19 -496l196 -84v-340l-155 6v-2zM795 1411l6 199l397 76l277 -218l-43 -761l-312 -263l-307 146l6 278l197 37l-8 410z" />
<glyph unicode="Q" horiz-adv-x="1748" d="M61 1100l310 475l485 65l-8 -460l-318 -217l-16 -140l277 -284l-9 -445l-168 -18l-512 475zM602 -113l137 119l357 -76h374l31 -194l-375 -303l-481 274zM893 68l8 460l316 142l24 221l-283 280l9 445l168 16l512 -471l41 -553l-308 -473z" />
<glyph unicode="R" horiz-adv-x="1622" d="M61 -16l7 383l206 63l-12 817l-147 21l-13 411l598 2l7 -247l-13 -557l19 -467l135 -84l-21 -340l-73 6v-2zM801 1671l397 -26l236 -279l-43 -557l-220 -119l211 -272l160 -86l19 -346h-646l7 350l88 49l-193 233l2 291l197 140l-8 163l-193 117z" />
<glyph unicode="S" horiz-adv-x="1296" d="M61 1100l125 450l328 74l23 -412l628 -440l70 -401l-102 -297l-308 -117l-2 432l-635 445zM119 12l14 473l244 -8l205 -223l141 -4l16 -293zM606 1624l516 -22l-47 -406l-211 -25l-250 244z" />
<glyph unicode="T" horiz-adv-x="1720" d="M61 1634l467 -8l4 -352l-223 -111l-207 -2zM492 -6l8 362l157 35l13 785l-47 444l460 16l4 -419l-18 -455l8 -373l187 -33l6 -364zM1188 1274l4 352l467 8l-41 -473l-207 2z" />
<glyph unicode="U" horiz-adv-x="1736" d="M61 1616l773 20l4 -430l-191 -10l43 -498v-340l182 -161l-10 -238l-364 31l-316 305l41 381l8 520l-163 10zM965 1610l706 26l4 -399l-176 -41l21 -514l-39 -494l-301 -231h-189l4 236l166 196l43 764l-233 47z" />
<glyph unicode="V" horiz-adv-x="1720" d="M61 1632l611 10l491 -1366l-92 -280l-305 -14l-461 1218l-213 4zM1069 1286l25 354l565 -2l-14 -352l-273 -362l-86 272z" />
<glyph unicode="W" horiz-adv-x="2486" d="M61 1632l611 10l329 -825l222 -561l-131 -260l-306 -14l-163 462l-150 385l-168 371l-213 4zM909 1632l611 10l333 -831l158 -535l-92 -280l-305 -14l-365 909l-96 309l-213 4zM1825 1247l35 393l565 -2l-15 -352l-303 -403l-65 274z" />
<glyph unicode="X" horiz-adv-x="1529" d="M61 1626l570 10l635 -1237l202 -32l-6 -369l-495 12l-650 1213l-225 6zM125 399l354 248l8 -215l181 -67l22 -359l-563 -18zM909 1292l25 348l508 -2l2 -411l-299 -228l-8 215z" />
<glyph unicode="Y" d="M61 1626l578 10l401 -833l23 -414l213 -45l10 -344l-887 -12l11 354l161 47l19 273l-285 532l-213 25zM950 1634l566 -2l-15 -352l-393 -279l16 203l-161 127z" />
<glyph unicode="Z" horiz-adv-x="1288" d="M61 1640l545 -12v-160l-274 -284l-230 12zM106 332l269 542l346 504l-41 260l311 4l158 -75l18 -348l-344 -504l-235 -412v-301h-459zM690 2l10 248l228 196h278l21 -458z" />
<glyph unicode="[" horiz-adv-x="788" d="M61 848l5 475l12 350l393 -10l256 10l-6 -350l-174 8l-107 -2l-12 -498l18 -495l101 -2l174 8l6 -350l-256 10h-12v-4l-103 2l-278 -8v10h-4z" />
<glyph unicode="\" horiz-adv-x="1110" d="M61 1634h400l244 -714l344 -918l-404 6l-233 694z" />
<glyph unicode="]" horiz-adv-x="788" d="M61 -8l7 350l174 -8l100 2l18 495l-12 498l-106 2l-174 -8l-7 350l256 -10l394 10l12 -350l4 -475l-12 -846h-4v-10l-279 8l-102 -2v4h-13z" />
<glyph unicode="^" horiz-adv-x="1155" d="M61 885l189 446l149 301l416 15l113 -330l166 -445l-344 -6l-158 498l-154 -494z" />
<glyph unicode="_" horiz-adv-x="1054" d="M61 4l392 -12l540 12l-6 -350l-391 18l-522 -18z" />
<glyph unicode="`" horiz-adv-x="684" d="M61 2093l256 217l306 -440l-217 -129z" />
<glyph unicode="a" horiz-adv-x="1413" d="M61 266l117 518l488 27l14 -254l-193 -65l13 -185l137 -6l141 -303l-483 -41zM109 1239l430 117l-21 -453l-282 -12zM614 1006l19 335l360 2l221 -110l-26 -850l164 -23l-6 -360l-359 -43l-227 281l51 700z" />
<glyph unicode="b" horiz-adv-x="1492" d="M61 -47l7 409l157 29l13 846l-144 -10l-26 430l628 20l-41 -399l-18 -516l12 -557l105 -207zM756 1198l313 131l363 -303l-62 -897l-223 -174l-328 82l-47 149l213 158v537l-223 10z" />
<glyph unicode="c" horiz-adv-x="1277" d="M61 432l70 567l410 332l168 -22l2 -340l-205 -314l18 -94l178 -213v-405l-372 129zM786 340l291 33l140 -324l-424 -108zM791 799l2 512l424 -109l-136 -436z" />
<glyph unicode="d" horiz-adv-x="1474" d="M61 174l43 864l312 262l307 -145l-6 -278l-176 4l8 -553l192 -97l-6 -198l-397 -76zM647 1366v320l135 -7v2l465 -14l-6 -426l12 -846l148 -20l12 -371l-577 -22l-7 227l13 557l-19 516z" />
<glyph unicode="e" horiz-adv-x="1417" d="M61 674l308 612l348 68l-4 -369l-158 -328l160 -346l-4 -362l-369 49zM709 707l305 120l-209 113l6 414l426 -146l119 -436l-101 -268l-495 -49zM811 -43l8 342l273 115l231 -60l-70 -354z" />
<glyph unicode="f" horiz-adv-x="1314" d="M61 1067l226 14l51 437l160 161l245 -2l-24 -399l14 -516l8 -373l230 -41l2 -358l-817 4l8 362l158 35l-19 256l-225 8zM825 1020l342 -31l-14 -338l-313 -20zM827 1165l2 512l424 -108l-135 -436z" />
<glyph unicode="g" horiz-adv-x="1460" d="M61 420l43 680l263 248l346 -150l2 -172l-170 -108l-15 -332l185 -29l6 -307l-334 -133zM86 49l330 -4l327 -115l-28 -368l-547 12zM805 1042l16 244l578 6l-13 -407l-188 -6l19 -725l43 -222l-207 -276l-240 -107l49 428l-45 652z" />
<glyph unicode="h" horiz-adv-x="1597" d="M61 -6l9 362l157 35l13 846l-144 -10l-26 430l628 20l-41 -399l-18 -516l8 -373l119 -33l2 -358zM754 930l4 276l233 101l303 -64l119 -217l-4 -637l119 -31l8 -356l-657 2l-19 363l123 22l8 545z" />
<glyph unicode="i" horiz-adv-x="894" d="M61 1223l629 20l-4 -340l-2 -141l8 -373l139 -33l3 -358l-746 -4l8 362l158 35l-4 422l-144 -10zM158 1745l184 86l270 -37l52 -369l-265 -59l-231 51z" />
<glyph unicode="j" horiz-adv-x="1196" d="M61 -545l27 400h285l205 -125l14 -322zM436 1276l219 10l437 6l6 -848l37 -544l-248 -224l-158 -221l-96 617l20 706l-170 15zM547 1792l184 86l270 -37l52 -368l-265 -60l-231 51z" />
<glyph unicode="k" horiz-adv-x="1591" d="M61 -6l9 362l157 35l13 846l-144 -10l-26 430l628 20l-41 -399l-18 -516l-12 -373l118 -33l3 -358zM731 664l187 223l444 -451l135 -41l33 -385l-623 -6l-33 334l93 51zM815 1380l567 37l-43 -405l-344 -109l19 146l-189 20z" />
<glyph unicode="l" horiz-adv-x="829" d="M61 -6l9 362l157 35l13 846l-144 -10l-26 430l628 20l-41 -399l-18 -516l8 -373l119 -33l2 -358z" />
<glyph unicode="m" horiz-adv-x="2299" d="M61 1292l629 21l-37 -410l-2 -141l8 -373l119 -33l2 -358l-706 -4l8 362l158 35l-4 504l-144 -10zM743 930l5 194l233 183l303 -64l119 -217l-4 -637l119 -31l8 -356l-627 2l-18 363l92 22l8 545zM1448 1120l246 187l303 -64l119 -217l-5 -637l119 -31l8 -356l-626 2 l-19 363l93 22l8 545l-197 -2z" />
<glyph unicode="n" horiz-adv-x="1609" d="M61 1292l629 21l-37 -410l-2 -141l8 -373l119 -33l2 -358l-706 -4l8 362l158 35l-4 504l-144 -10zM766 930l4 215l234 162l303 -64l118 -217l-4 -637l119 -31l8 -356l-657 2l-19 363l123 22l9 545z" />
<glyph unicode="o" horiz-adv-x="1507" d="M61 786l351 504l252 8l14 -407l-162 -281l211 -229l12 -385l-254 -6l-409 399zM754 1305l336 -9l342 -571l14 -289l-305 -446l-310 14v350l130 283l-191 246z" />
<glyph unicode="p" horiz-adv-x="1492" d="M61 1300l586 -6l2 -245l-12 -557l18 -517l41 -399l-628 21l26 430l144 -11l-13 846l-157 29zM756 55l6 307l235 -4l9 547l-228 53l-14 285l338 74l268 -193l62 -911l-392 -256z" />
<glyph unicode="q" horiz-adv-x="1533" d="M61 1114l301 227l328 -81l47 -150l-207 -147v-537l218 -20l6 -308l-314 -131l-362 303zM795 1348l678 -50l-54 -403l-135 10l-12 -846l143 11l27 -430l-629 -21l41 399l18 517l-12 557z" />
<glyph unicode="r" horiz-adv-x="1312" d="M61 1292l629 21l-37 -410l-2 -141l8 -373l222 -35l20 -358l-827 -2l8 362l158 35l-4 504l-144 -10zM741 1016l234 260l276 -221l-186 -312l-322 2z" />
<glyph unicode="s" horiz-adv-x="1290" d="M61 934l129 340l283 57l23 -391l616 -213l117 -377l-180 -356l-261 -37l25 432l-631 203zM94 8l43 432h199l166 -157l215 -33l-25 -293zM565 1331l533 -28l43 -404l-195 -25l-330 177z" />
<glyph unicode="t" horiz-adv-x="1263" d="M61 1243l297 105l103 313l293 -16l-62 -818l27 -817l-357 -53l-159 367l73 557l-206 26zM799 389l153 223l248 -53l2 -565l-393 20zM801 899l16 379l293 18l12 -428z" />
<glyph unicode="u" horiz-adv-x="1652" d="M61 864l23 428l639 56l-55 -422l-29 -596l238 4l-5 -277l-233 -100l-303 63l-119 218l59 624zM836 1315l659 35l-82 -435l4 -383l-20 -161l164 51l30 -408l-628 -20l36 409l2 142l-8 373l-151 -48z" />
<glyph unicode="v" d="M61 1292l611 11l428 -1027l-92 -280l-306 -14l-397 878l-213 25zM930 989l20 311l566 -2l-15 -352l-327 -313l-50 258z" />
<glyph unicode="w" horiz-adv-x="2242" d="M61 1286l570 10l387 -964l-51 -342l-305 -15l-377 879l-193 25zM846 1292l510 11l424 -965l-66 -342l-305 -14l-356 872l-142 31zM1595 989l21 311l565 -2l-14 -352l-301 -313l-76 258z" />
<glyph unicode="x" horiz-adv-x="1476" d="M61 1286l570 10l311 -524l270 -373l203 -32l-6 -369l-496 12l-596 873l-225 6zM127 358l283 193l28 -162l180 -67l19 -316l-508 2zM899 1032l4 256l512 -2l-35 -360l-338 -119l-2 127z" />
<glyph unicode="y" d="M61 1292l611 11l424 -869l-92 -280l-306 -15l-393 721l-213 25zM270 -322l43 246l670 113l-49 -217l-291 -328zM930 989l20 311l566 -2l-15 -352l-327 -313l-50 258z" />
<glyph unicode="z" horiz-adv-x="1202" d="M61 332l594 698l-41 260l312 4l155 -51l19 -348l-543 -631l-14 -262h-459zM78 1282l463 -2v-160l-207 -229l-230 12zM645 2l10 248l207 143h279v-389z" />
<glyph unicode="{" horiz-adv-x="786" d="M61 694l9 314l202 39l-122 378l176 215l399 -10l-2 -334l-242 11l113 -373l-176 -96l186 -127l-141 -355l239 17l9 -367l-457 8l-127 271l121 374z" />
<glyph unicode="|" horiz-adv-x="481" d="M61 -41l15 743l4 222l-10 749l350 -12l-17 -713l-4 -147l2 -115l11 -721z" />
<glyph unicode="}" horiz-adv-x="786" d="M61 1630l400 10l176 -215l-123 -378l203 -39l8 -314l-186 -35l120 -374l-127 -271l-456 -8l8 367l240 -17l-142 355l187 127l-176 96l112 373l-242 -11z" />
<glyph unicode="~" horiz-adv-x="1193" d="M61 836l365 266l283 -213l223 190l201 -258l-412 -303l-264 225l-183 -159z" />
<glyph unicode="&#xa1;" horiz-adv-x="690" d="M61 -2l5 448l86 621l399 -18l37 -359l-8 -696zM123 1270l10 327l232 52l264 -60l-51 -368l-271 -37z" />
<glyph unicode="&#xa2;" horiz-adv-x="1144" d="M61 655l58 459l373 270l135 -18l2 -274l-166 -256l14 -76l146 -172v-328l-344 105zM659 -4l33 428l-2 156l281 36l112 -280l-178 -45l25 -293zM659 1640l271 -2l-21 -321l170 -39l-110 -352l-277 26l2 242z" />
<glyph unicode="&#xa3;" horiz-adv-x="1411" d="M61 899l402 -33l-277 181l58 364l358 268l168 -22l2 -340l-184 -148l291 -288l8 -248l-318 -662l-194 -14l-160 260l272 397l-421 -34zM668 8l92 191l244 237l346 -47l-160 -432zM852 1147l2 512l424 -109l-135 -436zM952 883l371 18v-303l-367 27z" />
<glyph unicode="&#xa4;" horiz-adv-x="1478" d="M61 195l187 120l-86 301l315 -10l68 -186l153 -60v-313l-276 62l-137 -181zM61 1135l224 266l137 -180l276 61v-313l-153 -60l-68 -209l-315 9l65 305zM780 47v313l154 60l65 188l316 -8l-84 -285l186 -120l-223 -267l-139 181zM780 969v313l275 -61l139 180l223 -266 l-166 -121l64 -322l-316 10l-65 207z" />
<glyph unicode="&#xa5;" d="M61 1626l578 10l381 -833l22 -414l213 -45l11 -344l-887 -12l10 354l162 47l4 70l-162 6l-233 -12l-2 209l381 -11l30 2v9l-34 71h-3l-368 -14l-6 209l231 -8l51 2l-135 272l-213 25zM950 1634l566 -2l-15 -352l-393 -279l16 203l-161 127zM1106 723v178l360 37l-4 -219z M1110 451l2 208l354 3l-10 -224z" />
<glyph unicode="&#xa6;" horiz-adv-x="481" d="M61 -41l15 764l325 6l11 -764zM70 918v755l350 -12l-12 -758z" />
<glyph unicode="&#xa7;" horiz-adv-x="1345" d="M61 866l127 221l82 -129l201 -90l438 -239l226 -201l-76 -326l-248 -82l-53 297l-576 265zM117 436l229 6l139 -151l199 -25l35 -264l-596 2zM193 1321l104 283l258 43l68 -363l544 -237l117 -299l-84 -156h-96l-197 160l-577 284zM637 1647l475 10l51 -418l-170 -27 l-305 203z" />
<glyph unicode="&#xa8;" horiz-adv-x="966" d="M61 1790l5 278l202 52l170 -70l8 -264l-188 -43zM514 2052l195 68l188 -43l8 -265l-149 -69l-219 31z" />
<glyph unicode="&#xa9;" horiz-adv-x="1005" d="M61 1442l265 258l186 2v-158l-106 -20l-130 -162l13 -215l127 -125l121 -23l-7 -147l-196 -10l-262 211zM444 1329l95 76l16 -107l145 -10l25 207l-141 41l8 166l233 -49l119 -203v-346l-125 -195l-223 -51l4 139l160 74l-62 141l-147 -73l-98 53z" />
<glyph unicode="&#xaa;" horiz-adv-x="509" d="M61 1436l35 155l148 8l4 -75l-60 -21l5 -55l40 -2l43 -90l-145 -13zM76 1729l129 34l-6 -137l-84 -2zM227 1657l6 102h109l66 -33l-9 -256l50 -6l-3 -108l-106 -13l-70 84l17 209z" />
<glyph unicode="&#xab;" horiz-adv-x="1107" d="M61 711l285 399l195 -182l-179 -234l193 -231l-219 -162zM553 711l285 399l194 -182l-178 -234l193 -231l-220 -162z" />
<glyph unicode="&#xac;" horiz-adv-x="1423" d="M61 969l562 -13l739 13l-12 -432l-568 10l-714 -10zM885 -2l20 448l434 -2l19 -442z" />
<glyph unicode="&#xad;" horiz-adv-x="870" d="M61 823l392 -12l356 12l-6 -350l-350 19l-379 -19z" />
<glyph unicode="&#xae;" horiz-adv-x="1069" d="M61 1083l2 390l259 229l178 -2v-115l-213 -22l-19 -197h68l-2 -238l-72 -8l-8 -137l281 -6l10 139l-49 12l10 103h24l99 -113l-49 -4l-5 -143l68 -4l-12 -123l-207 -17l-209 45zM553 1583l2 119l41 -2l225 -49l144 -203l43 -221l-109 -330l-219 -53l4 127l129 2l8 151 l-92 19l-90 131l72 14l59 72l-43 188z" />
<glyph unicode="&#xaf;" horiz-adv-x="761" d="M61 1767l21 301l278 7l320 -21l20 -297l-278 25z" />
<glyph unicode="&#xb0;" horiz-adv-x="565" d="M61 1561l148 141h57v-158l-57 -90v-96l59 -86v-148h-55l-147 136zM299 1702h57l146 -135l2 -297l-148 -146h-53v156l68 74l-4 116l-60 74z" />
<glyph unicode="&#xb1;" horiz-adv-x="1054" d="M61 111l13 329l291 -10l8 223l-299 -10l-13 330l308 -10l-7 307l351 -6l-15 -297l295 6l-6 -330l-285 14l9 -229l276 12l6 -329l-540 12z" />
<glyph unicode="&#xb4;" horiz-adv-x="684" d="M61 1870l306 440l256 -217l-344 -352z" />
<glyph unicode="&#xb5;" horiz-adv-x="1652" d="M61 864l23 428l639 56l-55 -422l-29 -596l238 4l-5 -334l-258 12l50 -483l-449 2l14 279l50 225l-43 282l65 572zM836 1315l659 35l-82 -435l4 -383l-20 -161l164 51l30 -408l-628 -20l36 409l2 142l-8 373l-151 -48z" />
<glyph unicode="&#xb6;" horiz-adv-x="1536" d="M61 913l2 590l406 172l297 -8l-27 -295l-10 -213l-6 -278l10 -867l-604 -18l-10 315l278 84v373zM881 -4l8 1675l346 4l4 -151l8 -1143l226 -70l2 -311z" />
<glyph unicode="&#xb7;" horiz-adv-x="679" d="M61 840l203 94l297 -39l57 -406l-290 -65l-254 55z" />
<glyph unicode="&#xb8;" horiz-adv-x="600" d="M61 -524l11 205l250 -35v78l-191 28l-47 137l29 172l161 15l23 -176l166 -25l76 -217l-131 -197z" />
<glyph unicode="&#xba;" horiz-adv-x="538" d="M61 1591l105 152l76 2l4 -121l-64 -86l80 -49l2 -135l-76 -2l-122 121zM268 1741l103 4l102 -172l4 -86l-92 -135l-98 6v98l45 84l-58 80z" />
<glyph unicode="&#xbb;" horiz-adv-x="1107" d="M61 463l193 231l-178 234l194 182l285 -399l-274 -410zM553 463l192 231l-178 234l195 182l285 -399l-275 -410z" />
<glyph unicode="&#xbc;" horiz-adv-x="1622" d="M61 1454l218 168l-19 -334l-123 -28zM119 2l530 969l348 657h338l-915 -1620zM119 668l6 217l168 35l6 469l16 239l170 35l78 -82l-12 -131l-12 -285l6 -247l-139 -238zM768 438l348 600l258 -45v-106l-112 -129l-230 -297l115 18l-4 -223l-318 -6zM1092 2l2 178l98 39 l2 152l2 219l170 207l49 -9l2 -174l-2 -135l146 19v-232l-150 2v-51l111 -51v-166z" />
<glyph unicode="&#xbd;" horiz-adv-x="1687" d="M61 1454l218 168l-19 -334l-123 -28zM119 668l6 217l168 35l6 469l16 239l170 35l78 -82l-12 -131l-12 -285l6 -247l-139 -238zM139 2l510 969l348 657h338l-530 -938l-344 -682zM889 692l135 269l141 30l2 -360l-252 -43zM895 283l221 178l201 157l-96 105l-7 268h150 l219 -272l-39 -193l-370 -293l-3 -237l-227 2zM1214 -6l11 227l118 12l95 93l188 16l-41 -342l-184 4z" />
<glyph unicode="&#xbe;" horiz-adv-x="1720" d="M61 1593l252 76l11 -307l-172 -27zM90 729l62 250h188l8 -307zM238 2l530 969l348 657h318l-895 -1620zM311 1243l154 109l-6 53l-88 59l-6 205l100 17l252 -191l12 -88l-24 -172l-138 -57l133 -39l-16 -150l-186 -323l-101 10l-8 192l76 78l2 43l-152 111zM866 438 l369 600l238 -45v-106l-113 -129l-230 -297l115 18l-4 -223l-317 -6zM1190 2l2 178l98 39l2 152l2 219l170 207l49 -9l3 -174l-3 -135l146 19v-232l-150 2v-51l111 -51v-166z" />
<glyph unicode="&#xbf;" horiz-adv-x="1196" d="M61 688l207 238l283 18l-4 176h330l55 -182l-43 -281l-447 -118l2 -95l185 -108l-2 -340l-168 -23l-369 271zM451 1599l264 60l231 -51l10 -328l-184 -86l-270 37zM709 506l290 33l136 -437l-424 -108z" />
<glyph unicode="&#xc0;" horiz-adv-x="1837" d="M82 -4l41 334l174 59l166 365l137 362l-252 -8l31 498l260 26l137 -514l62 -166l-101 -221l135 -24l43 -164l-223 14l-53 -166l154 -69l24 -326h-735zM369 2093l256 217l305 -440l-217 -129zM743 1645l424 10l197 -658l231 -608l174 -63l27 -326l-848 -6l-6 315l150 80 l-236 801z" />
<glyph unicode="&#xc1;" horiz-adv-x="1837" d="M82 -4l41 334l174 59l166 365l137 362l-252 -8l31 498l260 26l137 -514l62 -166l-101 -221l135 -24l43 -164l-223 14l-53 -166l154 -69l24 -326h-735zM532 1870l306 440l256 -217l-344 -352zM743 1645l424 10l197 -658l231 -608l174 -63l27 -326l-848 -6l-6 315l150 80 l-236 801z" />
<glyph unicode="&#xc2;" horiz-adv-x="1837" d="M82 -4l41 334l174 59l166 365l137 362l-252 -8l31 498l260 26l137 -514l62 -166l-101 -221l135 -24l43 -164l-223 14l-53 -166l154 -69l24 -326h-735zM451 1923l342 229l331 -237l-151 -162l-195 148l-192 -160zM743 1645l424 10l197 -658l231 -608l174 -63l27 -326 l-848 -6l-6 315l150 80l-236 801z" />
<glyph unicode="&#xc3;" horiz-adv-x="1837" d="M82 -4l41 334l174 59l166 365l137 362l-252 -8l31 498l260 26l137 -514l62 -166l-101 -221l135 -24l43 -164l-223 14l-53 -166l154 -69l24 -326h-735zM369 1917l260 219l289 -121l94 111l196 -148l-223 -223l-332 113l-141 -137zM743 1645l424 10l197 -658l231 -608 l174 -63l27 -326l-848 -6l-6 315l150 80l-236 801z" />
<glyph unicode="&#xc4;" horiz-adv-x="1837" d="M82 -4l41 334l174 59l166 365l137 362l-252 -8l31 498l260 26l137 -514l62 -166l-101 -221l135 -24l43 -164l-223 14l-53 -166l154 -69l24 -326h-735zM369 1790l4 278l202 52l170 -70l9 -264l-189 -43zM743 1645l424 10l197 -658l231 -608l174 -63l27 -326l-848 -6 l-6 315l150 80l-236 801zM821 2052l195 68l188 -43l8 -265l-149 -69l-219 31z" />
<glyph unicode="&#xc5;" horiz-adv-x="1837" d="M82 -4l41 334l174 59l166 365l137 362l-252 -8l31 498l260 26l137 -514l62 -166l-101 -221l135 -24l43 -164l-223 14l-53 -166l154 -69l24 -326h-735zM512 1964l94 123l88 29l6 -138l-45 -53l45 -41v-151l-174 100zM743 1645l424 10l197 -658l231 -608l174 -63l27 -326 l-848 -6l-6 315l150 80l-236 801zM745 1733v151l46 41l-46 53l7 138l88 -29l94 -123l-14 -131z" />
<glyph unicode="&#xc6;" horiz-adv-x="2168" d="M61 -4l21 334l194 59l166 365l179 362l-252 53l30 478l475 -15l21 -499l-2 -119l-156 -283l156 -24v-177l-221 7l-74 -146l154 -69l24 -326h-715zM842 319l135 62l12 815l-10 446l418 -6l4 -399l-19 -475l9 -373l6 -391l-539 -2zM1477 2v338l309 135l321 -22l-49 -496z M1501 727v201l213 123l217 6l-6 -453l-213 -16zM1501 1294l4 332l529 29l-41 -473l-207 2z" />
<glyph unicode="&#xc7;" horiz-adv-x="1447" d="M82 547l61 631l529 454l168 -22l-9 -445l-290 -270l14 -250l309 -207l-8 -461l-483 84zM889 -524l10 205l250 -35v78l-191 28l-36 137l6 183h18l4 389l330 26l123 -454l-291 -37l12 -96l166 -25l76 -217l-131 -197zM920 1012l4 600l483 -148l-137 -524z" />
<glyph unicode="&#xc8;" horiz-adv-x="1445" d="M82 -6l8 362l178 35l13 785l-164 10l-27 430l207 6l397 14l4 -399l-18 -475l8 -373l6 -391l-426 -2zM348 2093l256 217l305 -440l-217 -129zM774 2v338l309 135l322 -22l-49 -496zM799 727v201l213 123l217 6l-6 -453l-213 -16zM799 1294l4 332l528 29l-41 -473l-207 2z " />
<glyph unicode="&#xc9;" horiz-adv-x="1445" d="M82 -6l8 362l178 35l13 785l-164 10l-27 430l207 6l397 14l4 -399l-18 -475l8 -373l6 -391l-426 -2zM451 1870l305 440l256 -217l-344 -352zM774 2v338l309 135l322 -22l-49 -496zM799 727v201l213 123l217 6l-6 -453l-213 -16zM799 1294l4 332l528 29l-41 -473l-207 2z " />
<glyph unicode="&#xca;" horiz-adv-x="1445" d="M82 -6l8 362l178 35l13 785l-164 10l-27 430l207 6l397 14l4 -399l-18 -475l8 -373l6 -391l-426 -2zM205 1944l342 229l332 -238l-152 -161l-195 147l-192 -160zM774 2v338l309 135l322 -22l-49 -496zM799 727v201l213 123l217 6l-6 -453l-213 -16zM799 1294l4 332 l528 29l-41 -473l-207 2z" />
<glyph unicode="&#xcb;" horiz-adv-x="1445" d="M82 -6l8 362l178 35l13 785l-164 10l-27 430l207 6l397 14l4 -399l-18 -475l8 -373l6 -391l-426 -2zM266 1790l4 278l203 52l170 -70l8 -264l-188 -43zM719 2052l194 68l189 -43l8 -265l-149 -69l-220 31zM774 2v338l309 135l322 -22l-49 -496zM799 727v201l213 123 l217 6l-6 -453l-213 -16zM799 1294l4 332l528 29l-41 -473l-207 2z" />
<glyph unicode="&#xcc;" horiz-adv-x="944" d="M82 -6l8 362l178 35l6 385l7 420l-164 10l-6 410l772 20l4 -399l-191 -41l29 -428l-16 -358l194 -78l-4 -334zM137 2093l256 217l305 -440l-217 -129z" />
<glyph unicode="&#xcd;" horiz-adv-x="944" d="M82 -6l8 362l178 35l6 385l7 420l-164 10l-6 410l772 20l4 -399l-191 -41l29 -428l-16 -358l194 -78l-4 -334zM246 1870l305 440l256 -217l-344 -352z" />
<glyph unicode="&#xce;" horiz-adv-x="1026" d="M164 -6l8 362l178 35l6 385l6 420l-163 10l-6 410l772 20l4 -399l-191 -41l29 -428l-16 -358l194 -78l-4 -334zM246 1944l342 229l332 -238l-152 -161l-195 147l-192 -160z" />
<glyph unicode="&#xcf;" horiz-adv-x="985" d="M82 1790l4 278l203 52l170 -70l8 -264l-188 -43zM123 -6l8 362l178 35l6 385l7 420l-164 10l-6 410l772 20l4 -399l-191 -41l29 -428l-16 -358l194 -78l-4 -334zM535 2052l194 68l189 -43l8 -265l-150 -69l-219 31z" />
<glyph unicode="&#xd0;" horiz-adv-x="1609" d="M61 639l11 276h207l4 281l-144 -10l-26 430l583 20l4 -399l-12 -319h232l-2 -291l-234 2l6 -240l6 -391l-592 -4l9 362l157 35l4 242zM788 389l271 146l-10 489l-261 129l17 475l446 -31l297 -507l-26 -740l-394 -393l-329 39z" />
<glyph unicode="&#xd1;" horiz-adv-x="1751" d="M61 -2v395l187 58l31 206l22 283h141l41 -299l35 -190l176 -70l31 -377zM84 1634l676 -6l391 -692l324 -356l2 -537l-293 -6l-406 510l-372 608l-283 45zM442 1917l260 219l289 -121l94 111l197 -148l-223 -223l-332 113l-141 -137zM1026 1638l664 7v-396l-158 -75 l-47 -220h-135l-80 222l-213 86z" />
<glyph unicode="&#xd2;" horiz-adv-x="1748" d="M82 526l41 635l512 471l168 -16l8 -445l-283 -280l23 -207l317 -238l9 -460l-488 67zM492 2093l256 217l305 -440l-217 -129zM913 1640l486 -65l309 -475l-41 -631l-512 -475l-168 18l-8 445l283 299l-23 207l-317 217z" />
<glyph unicode="&#xd3;" horiz-adv-x="1748" d="M82 526l41 635l512 471l168 -16l8 -445l-283 -280l23 -207l317 -238l9 -460l-488 67zM594 1870l305 440l256 -217l-344 -352zM913 1640l486 -65l309 -475l-41 -631l-512 -475l-168 18l-8 445l283 299l-23 207l-317 217z" />
<glyph unicode="&#xd4;" horiz-adv-x="1748" d="M82 526l41 635l512 471l168 -16l8 -445l-283 -280l23 -207l317 -238l9 -460l-488 67zM430 1944l342 229l332 -238l-152 -161l-194 147l-193 -160zM913 1640l486 -65l309 -475l-41 -631l-512 -475l-168 18l-8 445l283 299l-23 207l-317 217z" />
<glyph unicode="&#xd5;" horiz-adv-x="1748" d="M82 526l41 635l512 471l168 -16l8 -445l-283 -280l23 -207l317 -238l9 -460l-488 67zM430 1917l260 219l289 -121l94 111l197 -148l-223 -223l-332 113l-142 -137zM913 1640l486 -65l309 -475l-41 -631l-512 -475l-168 18l-8 445l283 299l-23 207l-317 217z" />
<glyph unicode="&#xd6;" horiz-adv-x="1748" d="M82 526l41 635l512 471l168 -16l8 -445l-283 -280l23 -207l317 -238l9 -460l-488 67zM430 1790l4 278l203 52l170 -70l8 -264l-188 -43zM883 2052l194 68l189 -43l8 -265l-150 -69l-219 31zM913 1640l486 -65l309 -475l-41 -631l-512 -475l-168 18l-8 445l283 299 l-23 207l-317 217z" />
<glyph unicode="&#xd7;" horiz-adv-x="1021" d="M61 893l252 244l197 -244l207 235l244 -251l-240 -187l237 -201l-239 -256l-193 269l-204 -232l-230 234l221 194z" />
<glyph unicode="&#xd8;" horiz-adv-x="2086" d="M61 238l242 178l-72 110l41 635l512 471l168 -16l9 -445l-283 -280l10 -191l594 439l-211 41l-8 460l485 -65l105 -162l221 164l151 -160l-249 -192l82 -125l-41 -631l-512 -475l-168 18l-9 445l283 299l-10 182l-574 -442l191 -50l8 -460l-487 67l-97 148l-215 -166z " />
<glyph unicode="&#xd9;" horiz-adv-x="1736" d="M82 1616l772 20l4 -430l-190 -10l43 -498v-340l182 -161l-10 -238l-365 31l-315 305l41 381l8 520l-164 10zM573 2093l256 217l306 -440l-217 -129zM985 1610l707 26l4 -399l-176 -41l20 -514l-39 -494l-301 -231h-188l4 236l166 196l43 764l-234 47z" />
<glyph unicode="&#xda;" horiz-adv-x="1736" d="M82 1616l772 20l4 -430l-190 -10l43 -498v-340l182 -161l-10 -238l-365 31l-315 305l41 381l8 520l-164 10zM676 1870l305 440l256 -217l-344 -352zM985 1610l707 26l4 -399l-176 -41l20 -514l-39 -494l-301 -231h-188l4 236l166 196l43 764l-234 47z" />
<glyph unicode="&#xdb;" horiz-adv-x="1736" d="M82 1616l772 20l4 -430l-190 -10l43 -498v-340l182 -161l-10 -238l-365 31l-315 305l41 381l8 520l-164 10zM438 1944l342 229l332 -238l-151 -161l-195 147l-193 -160zM985 1610l707 26l4 -399l-176 -41l20 -514l-39 -494l-301 -231h-188l4 236l166 196l43 764l-234 47z " />
<glyph unicode="&#xdc;" horiz-adv-x="1736" d="M82 1616l772 20l4 -430l-190 -10l43 -498v-340l182 -161l-10 -238l-365 31l-315 305l41 381l8 520l-164 10zM451 1790l4 278l202 52l170 -70l9 -264l-189 -43zM903 2052l195 68l188 -43l8 -265l-149 -69l-219 31zM985 1610l707 26l4 -399l-176 -41l20 -514l-39 -494 l-301 -231h-188l4 236l166 196l43 764l-234 47z" />
<glyph unicode="&#xdd;" d="M61 1626l578 10l401 -833l23 -414l213 -45l10 -344l-887 -12l11 354l161 47l19 273l-285 532l-213 25zM553 1870l305 440l256 -217l-303 -352zM950 1634l566 -2l-15 -352l-393 -279l16 203l-161 127z" />
<glyph unicode="&#xde;" horiz-adv-x="1490" d="M61 -6l9 342l178 35l6 344l6 583l-164 11l-6 368l772 21l4 -359l-190 -41l29 -591l-17 -318l195 -78l-4 -313zM795 1198l272 131l363 -303l-62 -467l-223 -174l-336 82l-6 231l241 56v147l-243 31z" />
<glyph unicode="&#xdf;" horiz-adv-x="1662" d="M61 1169l226 15l51 334l160 161l245 -2l-24 -399l14 -516l8 -373l-8 -397l-577 2l8 362l158 35l-19 359l-225 8zM819 1284l25 387l358 -24l273 -211l49 -500l-346 -111l421 -118l3 -508l-222 -242l-542 41l-7 334l351 2l49 143l-408 158l2 401l349 158z" />
<glyph unicode="&#xe0;" horiz-adv-x="1413" d="M82 266l117 518l487 27l14 -254l-192 -65l12 -185l137 -6l142 -303l-484 -41zM129 1239l430 117l-20 -453l-283 -12zM328 1806l256 217l305 -440l-217 -129zM635 1006l18 335l361 2l221 -110l-27 -850l164 -23l-6 -360l-358 -43l-228 281l51 700z" />
<glyph unicode="&#xe1;" horiz-adv-x="1413" d="M82 266l117 518l487 27l14 -254l-192 -65l12 -185l137 -6l142 -303l-484 -41zM129 1239l430 117l-20 -453l-283 -12zM532 1583l306 440l256 -217l-344 -352zM635 1006l18 335l361 2l221 -110l-27 -850l164 -23l-6 -360l-358 -43l-228 281l51 700z" />
<glyph unicode="&#xe2;" horiz-adv-x="1413" d="M82 266l117 518l487 27l14 -254l-192 -65l12 -185l137 -6l142 -303l-484 -41zM129 1239l430 117l-20 -453l-283 -12zM381 1616l342 229l332 -237l-152 -162l-194 147l-193 -159zM635 1006l18 335l361 2l221 -110l-27 -850l164 -23l-6 -360l-358 -43l-228 281l51 700z" />
<glyph unicode="&#xe3;" horiz-adv-x="1413" d="M82 266l117 518l487 27l14 -254l-192 -65l12 -185l137 -6l142 -303l-484 -41zM129 1239l430 117l-20 -453l-283 -12zM266 1630l260 219l289 -120l94 110l197 -147l-223 -224l-332 113l-141 -137zM635 1006l18 335l361 2l221 -110l-27 -850l164 -23l-6 -360l-358 -43 l-228 281l51 700z" />
<glyph unicode="&#xe4;" horiz-adv-x="1413" d="M82 266l117 518l487 27l14 -254l-192 -65l12 -185l137 -6l142 -303l-484 -41zM129 1239l430 117l-20 -453l-283 -12zM264 1503l4 279l203 51l170 -70l8 -264l-188 -43zM635 1006l18 335l361 2l221 -110l-27 -850l164 -23l-6 -360l-358 -43l-228 281l51 700zM717 1765 l194 68l189 -43l8 -264l-150 -70l-219 31z" />
<glyph unicode="&#xe5;" horiz-adv-x="1413" d="M82 266l117 518l487 27l14 -254l-192 -65l12 -185l137 -6l142 -303l-484 -41zM129 1239l430 117l-20 -453l-283 -12zM430 1718l94 123l88 29l6 -137l-45 -54l45 -41v-151l-174 100zM635 1006l18 335l361 2l221 -110l-27 -850l164 -23l-6 -360l-358 -43l-228 281l51 700z M664 1487v151l45 41l-45 54l6 137l88 -29l94 -123l-14 -131z" />
<glyph unicode="&#xe6;" horiz-adv-x="1970" d="M61 266l117 518l522 27l-20 -254l-193 -65l13 -185l137 -6l141 -303l-483 -41zM109 1239l430 117l-21 -453l-282 -12zM614 1006l19 335l403 7l176 -209l-55 -750l113 -49l-6 -340l-277 -23l-227 261l63 747zM1280 479l6 248l287 90l-12 86l-244 43l-14 395l487 -133 l119 -436l-162 -268zM1364 -23l8 342l273 95l231 -60l-70 -354z" />
<glyph unicode="&#xe7;" horiz-adv-x="1294" d="M82 432l70 567l409 332l168 -22l2 -340l-205 -314l19 -94l178 -213v-405l-373 129zM756 -524l10 205l250 -35v78l-191 28l-32 189l14 120h4l-4 279l291 33l139 -324l-256 -65l10 -84l166 -25l76 -217l-131 -197zM811 799l2 512l424 -109l-135 -436z" />
<glyph unicode="&#xe8;" horiz-adv-x="1417" d="M82 674l307 612l348 68l-4 -369l-158 -328l160 -346l-4 -362l-369 49zM328 1806l256 217l305 -440l-217 -129zM729 707l305 120l-209 113l6 414l426 -146l119 -436l-100 -268l-496 -49zM831 -43l9 342l272 115l231 -60l-69 -354z" />
<glyph unicode="&#xe9;" horiz-adv-x="1417" d="M82 674l307 612l348 68l-4 -369l-158 -328l160 -346l-4 -362l-369 49zM532 1583l306 440l256 -217l-344 -352zM729 707l305 120l-209 113l6 414l426 -146l119 -436l-100 -268l-496 -49zM831 -43l9 342l272 115l231 -60l-69 -354z" />
<glyph unicode="&#xea;" horiz-adv-x="1417" d="M82 674l307 612l348 68l-4 -369l-158 -328l160 -346l-4 -362l-369 49zM422 1616l342 229l332 -237l-152 -162l-194 147l-193 -159zM729 707l305 120l-209 113l6 414l426 -146l119 -436l-100 -268l-496 -49zM831 -43l9 342l272 115l231 -60l-69 -354z" />
<glyph unicode="&#xeb;" horiz-adv-x="1417" d="M82 674l307 612l348 68l-4 -369l-158 -328l160 -346l-4 -362l-369 49zM346 1503l4 279l203 51l170 -70l8 -264l-188 -43zM729 707l305 120l-209 113l6 414l426 -146l119 -436l-100 -268l-496 -49zM799 1765l194 68l189 -43l8 -264l-150 -70l-219 31zM831 -43l9 342 l272 115l231 -60l-69 -354z" />
<glyph unicode="&#xec;" horiz-adv-x="915" d="M61 1806l256 217l306 -440l-217 -129zM102 1223l629 20l-4 -340l-2 -141l8 -373l119 -33l2 -358l-725 -4l8 362l158 35l-4 422l-144 -10z" />
<glyph unicode="&#xed;" horiz-adv-x="874" d="M61 1223l629 20l-4 -340l-2 -141l8 -373l119 -33l2 -358l-725 -4l8 362l158 35l-4 422l-144 -10zM164 1583l305 440l256 -217l-344 -352z" />
<glyph unicode="&#xee;" horiz-adv-x="874" d="M61 1223l629 20l-4 -340l-2 -141l8 -373l119 -33l2 -358l-725 -4l8 362l158 35l-4 422l-144 -10zM61 1616l342 229l332 -237l-151 -162l-195 147l-192 -159z" />
<glyph unicode="&#xef;" horiz-adv-x="966" d="M61 1503l5 279l202 51l170 -70l8 -264l-188 -43zM152 1223l628 20l-4 -340l-2 -141l8 -373l119 -33l2 -358l-725 -4l8 362l158 35l-4 422l-143 -10zM514 1765l195 68l188 -43l8 -264l-149 -70l-219 31z" />
<glyph unicode="&#xf0;" horiz-adv-x="1445" d="M61 1108l5 160l256 137l-201 133l67 287l289 -4l189 -101l143 178l321 -110l7 -166l-213 -135l448 -348l12 -996l-215 -186l-397 -68l-6 322l192 117l9 307l2 8l-39 307l-332 250l-254 -194zM90 174l43 557l442 320l240 -133l21 -267l-295 -86l8 -246l139 -108l-6 -322 l-356 68z" />
<glyph unicode="&#xf1;" horiz-adv-x="1609" d="M82 1292l629 21l-37 -410l-2 -141l8 -373l119 -33l2 -358l-707 -4l8 362l158 35l-4 504l-143 -10zM328 1630l260 219l289 -120l94 110l196 -147l-223 -224l-332 113l-141 -137zM786 930l5 215l233 162l303 -64l119 -217l-4 -637l119 -31l8 -356l-658 2l-18 363l123 22 l8 545z" />
<glyph unicode="&#xf2;" horiz-adv-x="1507" d="M82 786l350 504l252 8l14 -407l-161 -281l211 -229l12 -385l-254 -6l-410 399zM389 1806l256 217l305 -440l-217 -129zM774 1305l336 -9l342 -571l14 -289l-305 -446l-309 14v350l129 283l-190 246z" />
<glyph unicode="&#xf3;" horiz-adv-x="1507" d="M82 786l350 504l252 8l14 -407l-161 -281l211 -229l12 -385l-254 -6l-410 399zM512 1583l305 440l256 -217l-344 -352zM774 1305l336 -9l342 -571l14 -289l-305 -446l-309 14v350l129 283l-190 246z" />
<glyph unicode="&#xf4;" horiz-adv-x="1507" d="M82 786l350 504l252 8l14 -407l-161 -281l211 -229l12 -385l-254 -6l-410 399zM410 1616l342 229l331 -237l-151 -162l-195 147l-192 -159zM774 1305l336 -9l342 -571l14 -289l-305 -446l-309 14v350l129 283l-190 246z" />
<glyph unicode="&#xf5;" horiz-adv-x="1507" d="M82 786l350 504l252 8l14 -407l-161 -281l211 -229l12 -385l-254 -6l-410 399zM307 1630l260 219l289 -120l94 110l197 -147l-223 -224l-332 113l-141 -137zM774 1305l336 -9l342 -571l14 -289l-305 -446l-309 14v350l129 283l-190 246z" />
<glyph unicode="&#xf6;" horiz-adv-x="1507" d="M82 786l350 504l252 8l14 -407l-161 -281l211 -229l12 -385l-254 -6l-410 399zM346 1503l4 279l203 51l170 -70l8 -264l-188 -43zM774 1305l336 -9l342 -571l14 -289l-305 -446l-309 14v350l129 283l-190 246zM799 1765l194 68l189 -43l8 -264l-150 -70l-219 31z" />
<glyph unicode="&#xf7;" horiz-adv-x="1239" d="M61 969l684 -13l433 13l-13 -351l-665 19l-432 -19zM379 162l45 332l244 32l166 -77l-9 -295l-209 -45zM397 1389l166 77l244 -32l45 -332l-238 -53l-208 45z" />
<glyph unicode="&#xf8;" horiz-adv-x="1882" d="M61 102l281 199l-90 88l-14 397l350 504l252 8l14 -407l-172 -277l197 -225l16 -393l-233 -6l-168 164l-64 -52l-262 -165zM930 1284l336 12l106 -176l322 258l127 -182l-248 -195l-88 -71l123 -205l14 -289l-305 -446l-330 14v330l150 282l-191 267z" />
<glyph unicode="&#xf9;" horiz-adv-x="1652" d="M82 864l22 428l639 56l-55 -422l-29 -596l238 4l-4 -277l-234 -100l-303 63l-118 218l59 624zM512 1806l256 217l305 -440l-217 -129zM856 1315l660 35l-82 -435l4 -383l-21 -161l164 51l31 -408l-629 -20l37 409l2 142l-8 373l-152 -48z" />
<glyph unicode="&#xfa;" horiz-adv-x="1652" d="M82 864l22 428l639 56l-55 -422l-29 -596l238 4l-4 -277l-234 -100l-303 63l-118 218l59 624zM553 1583l305 440l256 -217l-344 -352zM856 1315l660 35l-82 -435l4 -383l-21 -161l164 51l31 -408l-629 -20l37 409l2 142l-8 373l-152 -48z" />
<glyph unicode="&#xfb;" horiz-adv-x="1652" d="M82 864l22 428l639 56l-55 -422l-29 -596l238 4l-4 -277l-234 -100l-303 63l-118 218l59 624zM492 1616l342 229l331 -237l-151 -162l-195 147l-192 -159zM856 1315l660 35l-82 -435l4 -383l-21 -161l164 51l31 -408l-629 -20l37 409l2 142l-8 373l-152 -48z" />
<glyph unicode="&#xfc;" horiz-adv-x="1652" d="M82 864l22 428l639 56l-55 -422l-29 -596l238 4l-4 -277l-234 -100l-303 63l-118 218l59 624zM408 1503l4 279l202 51l170 -70l9 -264l-189 -43zM856 1315l660 35l-82 -435l4 -383l-21 -161l164 51l31 -408l-629 -20l37 409l2 142l-8 373l-152 -48zM860 1765l195 68 l188 -43l8 -264l-149 -70l-219 31z" />
<glyph unicode="&#xfd;" d="M82 1292l610 11l424 -869l-92 -280l-305 -15l-393 721l-213 25zM291 -322l43 246l670 113l-50 -217l-290 -328zM614 1583l306 440l256 -217l-345 -352zM950 989l21 311l565 -2l-14 -352l-328 -313l-49 258z" />
<glyph unicode="&#xfe;" horiz-adv-x="1531" d="M61 -436l9 321l178 35l6 795l6 583l-164 11l-6 368l772 21l4 -359l-190 -41l29 -591l-17 -768l195 -78l-4 -293zM795 1198l313 131l362 -303l-61 -897l-223 -174l-377 82l-6 272l221 76v496l-223 10z" />
<glyph unicode="&#xff;" d="M82 1292l610 11l424 -869l-92 -280l-305 -15l-393 721l-213 25zM291 -322l43 246l670 113l-50 -217l-290 -328zM428 1503l4 279l203 51l170 -70l8 -264l-188 -43zM881 1765l194 68l189 -43l8 -264l-150 -70l-219 31zM950 989l21 311l565 -2l-14 -352l-328 -313l-49 258z " />
<glyph unicode="&#x152;" horiz-adv-x="2148" d="M61 1071l310 475l475 66l2 -461l-318 -238l-2 -227l318 -258l-2 -444l-168 -19l-594 393zM940 1622l436 14l4 -399l-18 -475l8 -373l6 -391l-426 -2v395l13 785zM1456 2v338l309 135l322 -22l-49 -496zM1481 727v201l213 123l217 6l-6 -453l-213 -16zM1481 1294l4 332 l528 29l-41 -473l-207 2z" />
<glyph unicode="&#x153;" horiz-adv-x="2113" d="M61 786l191 404l432 158l277 -54l-183 -471l-176 -14l-92 -188l22 -101l283 -139l109 -399l-244 -9l-195 -4l-409 420zM819 674l246 612l348 68l-4 -369l-158 -328l160 -346l-4 -362l-369 49zM1405 707l305 120l-209 113l6 414l426 -146l119 -436l-100 -268l-496 -49z M1507 -43l9 342l272 115l231 -60l-69 -354z" />
<glyph unicode="&#x178;" d="M82 1626l577 10l402 -833l22 -414l213 -45l11 -344l-887 -12l10 354l162 47l18 273l-284 532l-213 25zM387 1790l4 278l203 52l170 -70l8 -264l-188 -43zM840 2052l194 68l189 -43l8 -265l-150 -69l-219 31zM971 1634l565 -2l-14 -352l-394 -279l17 203l-162 127z" />
<glyph unicode="&#x2c6;" horiz-adv-x="796" d="M61 1944l342 229l332 -238l-151 -161l-195 147l-192 -160z" />
<glyph unicode="&#x2dc;" horiz-adv-x="962" d="M61 1917l261 219l288 -121l95 111l196 -148l-223 -223l-332 113l-141 -137z" />
<glyph unicode="&#x2000;" horiz-adv-x="1155" />
<glyph unicode="&#x2001;" horiz-adv-x="2310" />
<glyph unicode="&#x2002;" horiz-adv-x="1155" />
<glyph unicode="&#x2003;" horiz-adv-x="2310" />
<glyph unicode="&#x2004;" horiz-adv-x="770" />
<glyph unicode="&#x2005;" horiz-adv-x="577" />
<glyph unicode="&#x2006;" horiz-adv-x="385" />
<glyph unicode="&#x2007;" horiz-adv-x="385" />
<glyph unicode="&#x2008;" horiz-adv-x="288" />
<glyph unicode="&#x2009;" horiz-adv-x="462" />
<glyph unicode="&#x200a;" horiz-adv-x="128" />
<glyph unicode="&#x2010;" horiz-adv-x="870" d="M61 823l392 -12l356 12l-6 -350l-350 19l-379 -19z" />
<glyph unicode="&#x2011;" horiz-adv-x="870" d="M61 823l392 -12l356 12l-6 -350l-350 19l-379 -19z" />
<glyph unicode="&#x2012;" horiz-adv-x="870" d="M61 823l392 -12l356 12l-6 -350l-350 19l-379 -19z" />
<glyph unicode="&#x2013;" horiz-adv-x="870" d="M61 823l392 -12l356 12l-6 -350l-350 19l-379 -19z" />
<glyph unicode="&#x2014;" horiz-adv-x="1177" d="M61 823l576 -12l479 12l-6 -350l-473 19l-563 -19z" />
<glyph unicode="&#x2018;" horiz-adv-x="600" d="M61 1366l275 317l147 -167l-108 -175l155 -26l9 -412l-326 -76l-117 82z" />
<glyph unicode="&#x2019;" horiz-adv-x="661" d="M61 1608l388 75l116 -81l35 -457l-274 -318l-209 168l108 174l-155 27z" />
<glyph unicode="&#x201c;" horiz-adv-x="1112" d="M61 1386l254 297l148 -147l-109 -174l156 -27l8 -411l-305 -76l-117 82zM594 1386l254 297l147 -147l-108 -174l155 -27l9 -411l-306 -76l-116 82z" />
<glyph unicode="&#x201d;" horiz-adv-x="1112" d="M61 1608l306 75l116 -81l35 -457l-254 -297l-147 147l108 174l-155 27zM594 1608l305 75l117 -81l35 -457l-254 -297l-148 147l109 174l-156 27z" />
<glyph unicode="&#x201e;" horiz-adv-x="1112" d="M61 330l306 76l116 -82l35 -457l-254 -297l-147 147l108 174l-155 27zM594 330l305 76l117 -82l35 -457l-254 -297l-148 147l109 174l-156 27z" />
<glyph unicode="&#x2022;" horiz-adv-x="675" d="M61 659l7 402l290 74l246 -103l10 -381l-270 -61z" />
<glyph unicode="&#x2026;" horiz-adv-x="1763" d="M61 49l11 340l215 107l248 -86l-5 -369l-225 -47zM655 410l248 86l215 -107l10 -340l-243 -55l-226 47zM1229 399l244 97l225 -88l4 -349l-248 -65l-215 86z" />
<glyph unicode="&#x202f;" horiz-adv-x="462" />
<glyph unicode="&#x205f;" horiz-adv-x="577" />
<glyph unicode="&#x20ac;" horiz-adv-x="1765" d="M61 764l332 -8l4 78l-329 -13l-7 209l232 -8l115 2l8 154l467 454l168 -22l-9 -445l-194 -270l14 -250l213 -207l12 -461l-442 84l-270 363l8 141l-86 2l-234 -12zM944 825l6 64l80 115l524 36l-45 -219zM948 672l6 90l539 2l-51 -223l-367 12zM1124 1137l11 475 l569 -144l-143 -338zM1161 420l391 26l123 -413l-497 -58z" />
<glyph unicode="&#x2122;" horiz-adv-x="1251" d="M61 1683l140 -2l2 -104l-68 -35h-61zM190 1192l3 108l47 11l4 235l-15 133l140 7v-127l-4 -136l2 -112l55 -11l2 -108h-234zM399 1577l2 104l140 2l-13 -141h-61zM557 1192v119l57 16l9 62l6 86l37 -9l18 -82l10 -57l54 -20l8 -113zM582 1559v122h198l99 -266l86 199 l8 -162l-55 -133l-39 -121l-62 2l-67 168l-86 174zM942 1190l4 108l53 11l2 241l-10 127l193 6v-120l-58 -13l11 -127l-7 -108l60 -23l-2 -100z" />
<glyph unicode="&#x25fc;" horiz-adv-x="1300" d="M0 0v1300h1300v-1300h-1300z" />
</font>
</defs>
</svg>
